<svg id="visual" viewBox="0 0 1920 400" width="1920" height="400" xmlns="http://www.w3.org/2000/svg" xmlns:xlink="http://www.w3.org/1999/xlink" version="1.1"><rect x="0" y="0" width="1920" height="400" fill="#c4d6ee"></rect><path d="M0 340L45.7 346.8C91.3 353.7 182.7 367.3 274.2 376.7C365.7 386 457.3 391 548.8 380.3C640.3 369.7 731.7 343.3 823 335.2C914.3 327 1005.7 337 1097 353C1188.3 369 1279.7 391 1371.2 385C1462.7 379 1554.3 345 1645.8 328.7C1737.3 312.3 1828.7 313.7 1874.3 314.3L1920 315L1920 0L1874.3 0C1828.7 0 1737.3 0 1645.8 0C1554.3 0 1462.7 0 1371.2 0C1279.7 0 1188.3 0 1097 0C1005.7 0 914.3 0 823 0C731.7 0 640.3 0 548.8 0C457.3 0 365.7 0 274.2 0C182.7 0 91.3 0 45.7 0L0 0Z" fill="#99b8de"></path><path d="M0 257L45.7 256.8C91.3 256.7 182.7 256.3 274.2 271.5C365.7 286.7 457.3 317.3 548.8 314.7C640.3 312 731.7 276 823 275.5C914.3 275 1005.7 310 1097 316.5C1188.3 323 1279.7 301 1371.2 293.5C1462.7 286 1554.3 293 1645.8 305.5C1737.3 318 1828.7 336 1874.3 345L1920 354L1920 0L1874.3 0C1828.7 0 1737.3 0 1645.8 0C1554.3 0 1462.7 0 1371.2 0C1279.7 0 1188.3 0 1097 0C1005.7 0 914.3 0 823 0C731.7 0 640.3 0 548.8 0C457.3 0 365.7 0 274.2 0C182.7 0 91.3 0 45.7 0L0 0Z" fill="#9ac3df"></path><path d="M0 176L45.7 181.3C91.3 186.7 182.7 197.3 274.2 199.5C365.7 201.7 457.3 195.3 548.8 188C640.3 180.7 731.7 172.3 823 173.5C914.3 174.7 1005.7 185.3 1097 200.2C1188.3 215 1279.7 234 1371.2 244.2C1462.7 254.3 1554.3 255.7 1645.8 261C1737.3 266.3 1828.7 275.7 1874.3 280.3L1920 285L1920 0L1874.3 0C1828.7 0 1737.3 0 1645.8 0C1554.3 0 1462.7 0 1371.2 0C1279.7 0 1188.3 0 1097 0C1005.7 0 914.3 0 823 0C731.7 0 640.3 0 548.8 0C457.3 0 365.7 0 274.2 0C182.7 0 91.3 0 45.7 0L0 0Z" fill="#a1ccdf"></path><path d="M0 154L45.7 148C91.3 142 182.7 130 274.2 136.2C365.7 142.3 457.3 166.7 548.8 182C640.3 197.3 731.7 203.7 823 196.8C914.3 190 1005.7 170 1097 159C1188.3 148 1279.7 146 1371.2 151.3C1462.7 156.7 1554.3 169.3 1645.8 170.2C1737.3 171 1828.7 160 1874.3 154.5L1920 149L1920 0L1874.3 0C1828.7 0 1737.3 0 1645.8 0C1554.3 0 1462.7 0 1371.2 0C1279.7 0 1188.3 0 1097 0C1005.7 0 914.3 0 823 0C731.7 0 640.3 0 548.8 0C457.3 0 365.7 0 274.2 0C182.7 0 91.3 0 45.7 0L0 0Z" fill="#acd4df"></path><path d="M0 128L45.7 123C91.3 118 182.7 108 274.2 107.8C365.7 107.7 457.3 117.3 548.8 119.7C640.3 122 731.7 117 823 104.5C914.3 92 1005.7 72 1097 66.3C1188.3 60.7 1279.7 69.3 1371.2 76.8C1462.7 84.3 1554.3 90.7 1645.8 88.8C1737.3 87 1828.7 77 1874.3 72L1920 67L1920 0L1874.3 0C1828.7 0 1737.3 0 1645.8 0C1554.3 0 1462.7 0 1371.2 0C1279.7 0 1188.3 0 1097 0C1005.7 0 914.3 0 823 0C731.7 0 640.3 0 548.8 0C457.3 0 365.7 0 274.2 0C182.7 0 91.3 0 45.7 0L0 0Z" fill="#b9dcdf"></path></svg>