<svg id="visual" viewBox="0 0 1920 400" width="1920" height="400" xmlns="http://www.w3.org/2000/svg" xmlns:xlink="http://www.w3.org/1999/xlink" version="1.1"><rect x="0" y="0" width="1920" height="400" fill="#b9dcdf"></rect><path d="M0 298L45.7 302.8C91.3 307.7 182.7 317.3 274.2 332.2C365.7 347 457.3 367 548.8 367.3C640.3 367.7 731.7 348.3 823 334.5C914.3 320.7 1005.7 312.3 1097 329.3C1188.3 346.3 1279.7 388.7 1371.2 385.8C1462.7 383 1554.3 335 1645.8 328C1737.3 321 1828.7 355 1874.3 372L1920 389L1920 0L1874.3 0C1828.7 0 1737.3 0 1645.8 0C1554.3 0 1462.7 0 1371.2 0C1279.7 0 1188.3 0 1097 0C1005.7 0 914.3 0 823 0C731.7 0 640.3 0 548.8 0C457.3 0 365.7 0 274.2 0C182.7 0 91.3 0 45.7 0L0 0Z" fill="#99b8de"></path><path d="M0 305L45.7 306.2C91.3 307.3 182.7 309.7 274.2 302.2C365.7 294.7 457.3 277.3 548.8 270.8C640.3 264.3 731.7 268.7 823 280C914.3 291.3 1005.7 309.7 1097 306.5C1188.3 303.3 1279.7 278.7 1371.2 262.8C1462.7 247 1554.3 240 1645.8 248.7C1737.3 257.3 1828.7 281.7 1874.3 293.8L1920 306L1920 0L1874.3 0C1828.7 0 1737.3 0 1645.8 0C1554.3 0 1462.7 0 1371.2 0C1279.7 0 1188.3 0 1097 0C1005.7 0 914.3 0 823 0C731.7 0 640.3 0 548.8 0C457.3 0 365.7 0 274.2 0C182.7 0 91.3 0 45.7 0L0 0Z" fill="#9ac3df"></path><path d="M0 198L45.7 212.3C91.3 226.7 182.7 255.3 274.2 256.3C365.7 257.3 457.3 230.7 548.8 225C640.3 219.3 731.7 234.7 823 237.8C914.3 241 1005.7 232 1097 234.3C1188.3 236.7 1279.7 250.3 1371.2 256.8C1462.7 263.3 1554.3 262.7 1645.8 264.8C1737.3 267 1828.7 272 1874.3 274.5L1920 277L1920 0L1874.3 0C1828.7 0 1737.3 0 1645.8 0C1554.3 0 1462.7 0 1371.2 0C1279.7 0 1188.3 0 1097 0C1005.7 0 914.3 0 823 0C731.7 0 640.3 0 548.8 0C457.3 0 365.7 0 274.2 0C182.7 0 91.3 0 45.7 0L0 0Z" fill="#a1ccdf"></path><path d="M0 127L45.7 128.7C91.3 130.3 182.7 133.7 274.2 146.8C365.7 160 457.3 183 548.8 195.2C640.3 207.3 731.7 208.7 823 198.8C914.3 189 1005.7 168 1097 164.8C1188.3 161.7 1279.7 176.3 1371.2 170.2C1462.7 164 1554.3 137 1645.8 138.3C1737.3 139.7 1828.7 169.3 1874.3 184.2L1920 199L1920 0L1874.3 0C1828.7 0 1737.3 0 1645.8 0C1554.3 0 1462.7 0 1371.2 0C1279.7 0 1188.3 0 1097 0C1005.7 0 914.3 0 823 0C731.7 0 640.3 0 548.8 0C457.3 0 365.7 0 274.2 0C182.7 0 91.3 0 45.7 0L0 0Z" fill="#acd4df"></path><path d="M0 125L45.7 118.3C91.3 111.7 182.7 98.3 274.2 95.3C365.7 92.3 457.3 99.7 548.8 95.5C640.3 91.3 731.7 75.7 823 70.7C914.3 65.7 1005.7 71.3 1097 71C1188.3 70.7 1279.7 64.3 1371.2 61.2C1462.7 58 1554.3 58 1645.8 66.8C1737.3 75.7 1828.7 93.3 1874.3 102.2L1920 111L1920 0L1874.3 0C1828.7 0 1737.3 0 1645.8 0C1554.3 0 1462.7 0 1371.2 0C1279.7 0 1188.3 0 1097 0C1005.7 0 914.3 0 823 0C731.7 0 640.3 0 548.8 0C457.3 0 365.7 0 274.2 0C182.7 0 91.3 0 45.7 0L0 0Z" fill="#b9dcdf"></path></svg>