<svg id="visual" viewBox="0 0 1920 400" width="1920" height="400" xmlns="http://www.w3.org/2000/svg" xmlns:xlink="http://www.w3.org/1999/xlink" version="1.1"><rect x="0" y="0" width="1920" height="400" fill="#c4d6ee"></rect><path d="M0 762L45.7 764.2C91.3 766.3 182.7 770.7 274.2 767.5C365.7 764.3 457.3 753.7 548.8 743C640.3 732.3 731.7 721.7 823 713.2C914.3 704.7 1005.7 698.3 1097 697.7C1188.3 697 1279.7 702 1371.2 705.2C1462.7 708.3 1554.3 709.7 1645.8 700.7C1737.3 691.7 1828.7 672.3 1874.3 662.7L1920 653L1920 1081L1874.3 1081C1828.7 1081 1737.3 1081 1645.8 1081C1554.3 1081 1462.7 1081 1371.2 1081C1279.7 1081 1188.3 1081 1097 1081C1005.7 1081 914.3 1081 823 1081C731.7 1081 640.3 1081 548.8 1081C457.3 1081 365.7 1081 274.2 1081C182.7 1081 91.3 1081 45.7 1081L0 1081Z" fill="#99b8de"></path><path d="M0 794L45.7 787.3C91.3 780.7 182.7 767.3 274.2 771.5C365.7 775.7 457.3 797.3 548.8 800.7C640.3 804 731.7 789 823 781C914.3 773 1005.7 772 1097 771.7C1188.3 771.3 1279.7 771.7 1371.2 786.3C1462.7 801 1554.3 830 1645.8 827.8C1737.3 825.7 1828.7 792.3 1874.3 775.7L1920 759L1920 1081L1874.3 1081C1828.7 1081 1737.3 1081 1645.8 1081C1554.3 1081 1462.7 1081 1371.2 1081C1279.7 1081 1188.3 1081 1097 1081C1005.7 1081 914.3 1081 823 1081C731.7 1081 640.3 1081 548.8 1081C457.3 1081 365.7 1081 274.2 1081C182.7 1081 91.3 1081 45.7 1081L0 1081Z" fill="#9ac3df"></path><path d="M0 904L45.7 897.3C91.3 890.7 182.7 877.3 274.2 876C365.7 874.7 457.3 885.3 548.8 881.8C640.3 878.3 731.7 860.7 823 853.8C914.3 847 1005.7 851 1097 863.2C1188.3 875.3 1279.7 895.7 1371.2 902.2C1462.7 908.7 1554.3 901.3 1645.8 894.8C1737.3 888.3 1828.7 882.7 1874.3 879.8L1920 877L1920 1081L1874.3 1081C1828.7 1081 1737.3 1081 1645.8 1081C1554.3 1081 1462.7 1081 1371.2 1081C1279.7 1081 1188.3 1081 1097 1081C1005.7 1081 914.3 1081 823 1081C731.7 1081 640.3 1081 548.8 1081C457.3 1081 365.7 1081 274.2 1081C182.7 1081 91.3 1081 45.7 1081L0 1081Z" fill="#a1ccdf"></path><path d="M0 967L45.7 968C91.3 969 182.7 971 274.2 966.8C365.7 962.7 457.3 952.3 548.8 938.7C640.3 925 731.7 908 823 901.2C914.3 894.3 1005.7 897.7 1097 896.3C1188.3 895 1279.7 889 1371.2 892.3C1462.7 895.7 1554.3 908.3 1645.8 915.3C1737.3 922.3 1828.7 923.7 1874.3 924.3L1920 925L1920 1081L1874.3 1081C1828.7 1081 1737.3 1081 1645.8 1081C1554.3 1081 1462.7 1081 1371.2 1081C1279.7 1081 1188.3 1081 1097 1081C1005.7 1081 914.3 1081 823 1081C731.7 1081 640.3 1081 548.8 1081C457.3 1081 365.7 1081 274.2 1081C182.7 1081 91.3 1081 45.7 1081L0 1081Z" fill="#acd4df"></path><path d="M0 988L45.7 986C91.3 984 182.7 980 274.2 985.2C365.7 990.3 457.3 1004.7 548.8 1013.8C640.3 1023 731.7 1027 823 1028.2C914.3 1029.3 1005.7 1027.7 1097 1023.8C1188.3 1020 1279.7 1014 1371.2 1006.2C1462.7 998.3 1554.3 988.7 1645.8 980.3C1737.3 972 1828.7 965 1874.3 961.5L1920 958L1920 1081L1874.3 1081C1828.7 1081 1737.3 1081 1645.8 1081C1554.3 1081 1462.7 1081 1371.2 1081C1279.7 1081 1188.3 1081 1097 1081C1005.7 1081 914.3 1081 823 1081C731.7 1081 640.3 1081 548.8 1081C457.3 1081 365.7 1081 274.2 1081C182.7 1081 91.3 1081 45.7 1081L0 1081Z" fill="#b9dcdf"></path></svg>