<svg id="visual" viewBox="0 640 1920 400" width="1920" height="400" xmlns="http://www.w3.org/2000/svg" xmlns:xlink="http://www.w3.org/1999/xlink" version="1.1"><rect x="0" y="0" width="1920" height="400" fill="#b9dcdf"></rect><path d="M0 780L45.7 775.2C91.3 770.3 182.7 760.7 274.2 745.8C365.7 731 457.3 711 548.8 710.7C640.3 710.3 731.7 729.7 823 743.5C914.3 757.3 1005.7 765.7 1097 748.7C1188.3 731.7 1279.7 689.3 1371.2 692.2C1462.7 695 1554.3 743 1645.8 750C1737.3 757 1828.7 723 1874.3 706L1920 689L1920 1081L1874.3 1081C1828.7 1081 1737.3 1081 1645.8 1081C1554.3 1081 1462.7 1081 1371.2 1081C1279.7 1081 1188.3 1081 1097 1081C1005.7 1081 914.3 1081 823 1081C731.7 1081 640.3 1081 548.8 1081C457.3 1081 365.7 1081 274.2 1081C182.7 1081 91.3 1081 45.7 1081L0 1081Z" fill="#99b8de"></path><path d="M0 773L45.7 771.8C91.3 770.7 182.7 768.3 274.2 775.8C365.7 783.3 457.3 800.7 548.8 807.2C640.3 813.7 731.7 809.3 823 798C914.3 786.7 1005.7 768.3 1097 771.5C1188.3 774.7 1279.7 799.3 1371.2 815.2C1462.7 831 1554.3 838 1645.8 829.3C1737.3 820.7 1828.7 796.3 1874.3 784.2L1920 772L1920 1081L1874.3 1081C1828.7 1081 1737.3 1081 1645.8 1081C1554.3 1081 1462.7 1081 1371.2 1081C1279.7 1081 1188.3 1081 1097 1081C1005.7 1081 914.3 1081 823 1081C731.7 1081 640.3 1081 548.8 1081C457.3 1081 365.7 1081 274.2 1081C182.7 1081 91.3 1081 45.7 1081L0 1081Z" fill="#9ac3df"></path><path d="M0 880L45.7 865.7C91.3 851.3 182.7 822.7 274.2 821.7C365.7 820.7 457.3 847.3 548.8 853C640.3 858.7 731.7 843.3 823 840.2C914.3 837 1005.7 846 1097 843.7C1188.3 841.3 1279.7 827.7 1371.2 821.2C1462.7 814.7 1554.3 815.3 1645.8 813.2C1737.3 811 1828.7 806 1874.3 803.5L1920 801L1920 1081L1874.3 1081C1828.7 1081 1737.3 1081 1645.8 1081C1554.3 1081 1462.7 1081 1371.2 1081C1279.7 1081 1188.3 1081 1097 1081C1005.7 1081 914.3 1081 823 1081C731.7 1081 640.3 1081 548.8 1081C457.3 1081 365.7 1081 274.2 1081C182.7 1081 91.3 1081 45.7 1081L0 1081Z" fill="#a1ccdf"></path><path d="M0 951L45.7 949.3C91.3 947.7 182.7 944.3 274.2 931.2C365.7 918 457.3 895 548.8 882.8C640.3 870.7 731.7 869.3 823 879.2C914.3 889 1005.7 910 1097 913.2C1188.3 916.3 1279.7 901.7 1371.2 907.8C1462.7 914 1554.3 941 1645.8 939.7C1737.3 938.3 1828.7 908.7 1874.3 893.8L1920 879L1920 1081L1874.3 1081C1828.7 1081 1737.3 1081 1645.8 1081C1554.3 1081 1462.7 1081 1371.2 1081C1279.7 1081 1188.3 1081 1097 1081C1005.7 1081 914.3 1081 823 1081C731.7 1081 640.3 1081 548.8 1081C457.3 1081 365.7 1081 274.2 1081C182.7 1081 91.3 1081 45.7 1081L0 1081Z" fill="#acd4df"></path><path d="M0 953L45.7 959.7C91.3 966.3 182.7 979.7 274.2 982.7C365.7 985.7 457.3 978.3 548.8 982.5C640.3 986.7 731.7 1002.3 823 1007.3C914.3 1012.3 1005.7 1006.7 1097 1007C1188.3 1007.3 1279.7 1013.7 1371.2 1016.8C1462.7 1020 1554.3 1020 1645.8 1011.2C1737.3 1002.3 1828.7 984.7 1874.3 975.8L1920 967L1920 1081L1874.3 1081C1828.7 1081 1737.3 1081 1645.8 1081C1554.3 1081 1462.7 1081 1371.2 1081C1279.7 1081 1188.3 1081 1097 1081C1005.7 1081 914.3 1081 823 1081C731.7 1081 640.3 1081 548.8 1081C457.3 1081 365.7 1081 274.2 1081C182.7 1081 91.3 1081 45.7 1081L0 1081Z" fill="#b9dcdf"></path></svg>