<svg id="visual" viewBox="0 640 1920 400" width="1920" height="400" xmlns="http://www.w3.org/2000/svg" xmlns:xlink="http://www.w3.org/1999/xlink" version="1.1"><rect x="0" y="0" width="1920" height="1080" fill="#c4d6ee"></rect><path d="M0 758L45.7 737.2C91.3 716.3 182.7 674.7 274.2 675.2C365.7 675.7 457.3 718.3 548.8 737C640.3 755.7 731.7 750.3 823 755.5C914.3 760.7 1005.7 776.3 1097 768.7C1188.3 761 1279.7 730 1371.2 731.8C1462.7 733.7 1554.3 768.3 1645.8 761.3C1737.3 754.3 1828.7 705.7 1874.3 681.3L1920 657L1920 1081L1874.3 1081C1828.7 1081 1737.3 1081 1645.8 1081C1554.3 1081 1462.7 1081 1371.2 1081C1279.7 1081 1188.3 1081 1097 1081C1005.7 1081 914.3 1081 823 1081C731.7 1081 640.3 1081 548.8 1081C457.3 1081 365.7 1081 274.2 1081C182.7 1081 91.3 1081 45.7 1081L0 1081Z" fill="#99b8de"></path><path d="M0 793L45.7 799.2C91.3 805.3 182.7 817.7 274.2 815.8C365.7 814 457.3 798 548.8 793.2C640.3 788.3 731.7 794.7 823 797.5C914.3 800.3 1005.7 799.7 1097 787.3C1188.3 775 1279.7 751 1371.2 739.7C1462.7 728.3 1554.3 729.7 1645.8 746.7C1737.3 763.7 1828.7 796.3 1874.3 812.7L1920 829L1920 1081L1874.3 1081C1828.7 1081 1737.3 1081 1645.8 1081C1554.3 1081 1462.7 1081 1371.2 1081C1279.7 1081 1188.3 1081 1097 1081C1005.7 1081 914.3 1081 823 1081C731.7 1081 640.3 1081 548.8 1081C457.3 1081 365.7 1081 274.2 1081C182.7 1081 91.3 1081 45.7 1081L0 1081Z" fill="#9ac3df"></path><path d="M0 875L45.7 870.2C91.3 865.3 182.7 855.7 274.2 844.3C365.7 833 457.3 820 548.8 831.5C640.3 843 731.7 879 823 894.8C914.3 910.7 1005.7 906.3 1097 897.7C1188.3 889 1279.7 876 1371.2 868.3C1462.7 860.7 1554.3 858.3 1645.8 848.2C1737.3 838 1828.7 820 1874.3 811L1920 802L1920 1081L1874.3 1081C1828.7 1081 1737.3 1081 1645.8 1081C1554.3 1081 1462.7 1081 1371.2 1081C1279.7 1081 1188.3 1081 1097 1081C1005.7 1081 914.3 1081 823 1081C731.7 1081 640.3 1081 548.8 1081C457.3 1081 365.7 1081 274.2 1081C182.7 1081 91.3 1081 45.7 1081L0 1081Z" fill="#a1ccdf"></path><path d="M0 908L45.7 916.7C91.3 925.3 182.7 942.7 274.2 953.5C365.7 964.3 457.3 968.7 548.8 969.7C640.3 970.7 731.7 968.3 823 951C914.3 933.7 1005.7 901.3 1097 890.2C1188.3 879 1279.7 889 1371.2 892C1462.7 895 1554.3 891 1645.8 902.7C1737.3 914.3 1828.7 941.7 1874.3 955.3L1920 969L1920 1081L1874.3 1081C1828.7 1081 1737.3 1081 1645.8 1081C1554.3 1081 1462.7 1081 1371.2 1081C1279.7 1081 1188.3 1081 1097 1081C1005.7 1081 914.3 1081 823 1081C731.7 1081 640.3 1081 548.8 1081C457.3 1081 365.7 1081 274.2 1081C182.7 1081 91.3 1081 45.7 1081L0 1081Z" fill="#acd4df"></path><path d="M0 1002L45.7 995.3C91.3 988.7 182.7 975.3 274.2 978.2C365.7 981 457.3 1000 548.8 999.3C640.3 998.7 731.7 978.3 823 971C914.3 963.7 1005.7 969.3 1097 981C1188.3 992.7 1279.7 1010.3 1371.2 1015.8C1462.7 1021.3 1554.3 1014.7 1645.8 1011.3C1737.3 1008 1828.7 1008 1874.3 1008L1920 1008L1920 1081L1874.3 1081C1828.7 1081 1737.3 1081 1645.8 1081C1554.3 1081 1462.7 1081 1371.2 1081C1279.7 1081 1188.3 1081 1097 1081C1005.7 1081 914.3 1081 823 1081C731.7 1081 640.3 1081 548.8 1081C457.3 1081 365.7 1081 274.2 1081C182.7 1081 91.3 1081 45.7 1081L0 1081Z" fill="#b9dcdf"></path></svg>