<svg id="visual" viewBox="0 640 1920 400" width="1920" height="400" xmlns="http://www.w3.org/2000/svg" xmlns:xlink="http://www.w3.org/1999/xlink" version="1.1"><rect x="0" y="0" width="1920" height="400" fill="#c4d6ee"></rect><path d="M0 702L45.7 717.5C91.3 733 182.7 764 274.2 775.8C365.7 787.7 457.3 780.3 548.8 780.2C640.3 780 731.7 787 823 771.7C914.3 756.3 1005.7 718.7 1097 697C1188.3 675.3 1279.7 669.7 1371.2 664.2C1462.7 658.7 1554.3 653.3 1645.8 658.7C1737.3 664 1828.7 680 1874.3 688L1920 696L1920 1081L1874.3 1081C1828.7 1081 1737.3 1081 1645.8 1081C1554.3 1081 1462.7 1081 1371.2 1081C1279.7 1081 1188.3 1081 1097 1081C1005.7 1081 914.3 1081 823 1081C731.7 1081 640.3 1081 548.8 1081C457.3 1081 365.7 1081 274.2 1081C182.7 1081 91.3 1081 45.7 1081L0 1081Z" fill="#99b8de"></path><path d="M0 746L45.7 755.3C91.3 764.7 182.7 783.3 274.2 781.2C365.7 779 457.3 756 548.8 742.7C640.3 729.3 731.7 725.7 823 743.8C914.3 762 1005.7 802 1097 815.7C1188.3 829.3 1279.7 816.7 1371.2 811.3C1462.7 806 1554.3 808 1645.8 801.8C1737.3 795.7 1828.7 781.3 1874.3 774.2L1920 767L1920 1081L1874.3 1081C1828.7 1081 1737.3 1081 1645.8 1081C1554.3 1081 1462.7 1081 1371.2 1081C1279.7 1081 1188.3 1081 1097 1081C1005.7 1081 914.3 1081 823 1081C731.7 1081 640.3 1081 548.8 1081C457.3 1081 365.7 1081 274.2 1081C182.7 1081 91.3 1081 45.7 1081L0 1081Z" fill="#a4bfe2"></path><path d="M0 822L45.7 836.5C91.3 851 182.7 880 274.2 879.7C365.7 879.3 457.3 849.7 548.8 832.5C640.3 815.3 731.7 810.7 823 811.3C914.3 812 1005.7 818 1097 819.2C1188.3 820.3 1279.7 816.7 1371.2 812.3C1462.7 808 1554.3 803 1645.8 814C1737.3 825 1828.7 852 1874.3 865.5L1920 879L1920 1081L1874.3 1081C1828.7 1081 1737.3 1081 1645.8 1081C1554.3 1081 1462.7 1081 1371.2 1081C1279.7 1081 1188.3 1081 1097 1081C1005.7 1081 914.3 1081 823 1081C731.7 1081 640.3 1081 548.8 1081C457.3 1081 365.7 1081 274.2 1081C182.7 1081 91.3 1081 45.7 1081L0 1081Z" fill="#afc7e6"></path><path d="M0 938L45.7 933C91.3 928 182.7 918 274.2 923.7C365.7 929.3 457.3 950.7 548.8 950.5C640.3 950.3 731.7 928.7 823 924.5C914.3 920.3 1005.7 933.7 1097 927.3C1188.3 921 1279.7 895 1371.2 895.7C1462.7 896.3 1554.3 923.7 1645.8 929.3C1737.3 935 1828.7 919 1874.3 911L1920 903L1920 1081L1874.3 1081C1828.7 1081 1737.3 1081 1645.8 1081C1554.3 1081 1462.7 1081 1371.2 1081C1279.7 1081 1188.3 1081 1097 1081C1005.7 1081 914.3 1081 823 1081C731.7 1081 640.3 1081 548.8 1081C457.3 1081 365.7 1081 274.2 1081C182.7 1081 91.3 1081 45.7 1081L0 1081Z" fill="#baceea"></path><path d="M0 961L45.7 963.3C91.3 965.7 182.7 970.3 274.2 981.2C365.7 992 457.3 1009 548.8 1010.3C640.3 1011.7 731.7 997.3 823 993C914.3 988.7 1005.7 994.3 1097 989C1188.3 983.7 1279.7 967.3 1371.2 961.5C1462.7 955.7 1554.3 960.3 1645.8 965.8C1737.3 971.3 1828.7 977.7 1874.3 980.8L1920 984L1920 1081L1874.3 1081C1828.7 1081 1737.3 1081 1645.8 1081C1554.3 1081 1462.7 1081 1371.2 1081C1279.7 1081 1188.3 1081 1097 1081C1005.7 1081 914.3 1081 823 1081C731.7 1081 640.3 1081 548.8 1081C457.3 1081 365.7 1081 274.2 1081C182.7 1081 91.3 1081 45.7 1081L0 1081Z" fill="#c4d6ee"></path></svg>